%TF.GenerationSoftware,KiCad,Pcbnew,9.0.7*%
%TF.CreationDate,2026-08-22T19:47:47+01:00*%
%TF.ProjectId,pcb,7063622e-6b69-4636-9164-5f7063625858,rev?*%
%TF.SameCoordinates,Original*%
%TF.FileFunction,Copper,L2,Bot*%
%TF.FilePolarity,Positive*%
%FSLAX46Y46*%
G04 Gerber Fmt 4.6, Leading zero omitted, Abs format (unit mm)*
G04 Created by KiCad (PCBNEW 9.0.7) date 2026-08-22 19:47:47*
%MOMM*%
%LPD*%
G01*
G04 APERTURE LIST*
G04 Aperture macros list*
%AMRoundRect*
0 Rectangle with rounded corners*
0 $1 Rounding radius*
0 $2 $3 $4 $5 $6 $7 $8 $9 X,Y pos of 4 corners*
0 Add a 4 corners polygon primitive as box body*
4,1,4,$2,$3,$4,$5,$6,$7,$8,$9,$2,$3,0*
0 Add four circle primitives for the rounded corners*
1,1,$1+$1,$2,$3*
1,1,$1+$1,$4,$5*
1,1,$1+$1,$6,$7*
1,1,$1+$1,$8,$9*
0 Add four rect primitives between the rounded corners*
20,1,$1+$1,$2,$3,$4,$5,0*
20,1,$1+$1,$4,$5,$6,$7,0*
20,1,$1+$1,$6,$7,$8,$9,0*
20,1,$1+$1,$8,$9,$2,$3,0*%
G04 Aperture macros list end*
%TA.AperFunction,ComponentPad*%
%ADD10RoundRect,0.800000X0.800000X0.800000X-0.800000X0.800000X-0.800000X-0.800000X0.800000X-0.800000X0*%
%TD*%
%TA.AperFunction,ComponentPad*%
%ADD11C,3.200000*%
%TD*%
%TA.AperFunction,ComponentPad*%
%ADD12C,3.000000*%
%TD*%
%TA.AperFunction,ComponentPad*%
%ADD13RoundRect,0.700000X0.700000X-0.700000X0.700000X0.700000X-0.700000X0.700000X-0.700000X-0.700000X0*%
%TD*%
%TA.AperFunction,ComponentPad*%
%ADD14C,2.800000*%
%TD*%
%TA.AperFunction,ComponentPad*%
%ADD15RoundRect,0.800000X-0.800000X-0.800000X0.800000X-0.800000X0.800000X0.800000X-0.800000X0.800000X0*%
%TD*%
%TA.AperFunction,ComponentPad*%
%ADD16RoundRect,0.700000X-0.700000X0.700000X-0.700000X-0.700000X0.700000X-0.700000X0.700000X0.700000X0*%
%TD*%
%TA.AperFunction,ComponentPad*%
%ADD17C,2.400000*%
%TD*%
%TA.AperFunction,ComponentPad*%
%ADD18RoundRect,0.550000X-0.550000X-0.550000X0.550000X-0.550000X0.550000X0.550000X-0.550000X0.550000X0*%
%TD*%
%TA.AperFunction,ComponentPad*%
%ADD19C,2.200000*%
%TD*%
%TA.AperFunction,Conductor*%
%ADD20C,3.200000*%
%TD*%
%TA.AperFunction,Conductor*%
%ADD21C,2.000000*%
%TD*%
%TA.AperFunction,Conductor*%
%ADD22C,4.500000*%
%TD*%
G04 APERTURE END LIST*
D10*
%TO.P,J_EARTH,1*%
%TO.N,EARTH*%
X154000000Y-125040000D03*
D11*
%TO.P,J_EARTH,2*%
X154000000Y-119960000D03*
%TD*%
D12*
%TO.P,GDT1,1*%
%TO.N,WIRE_A*%
X123380000Y-117420000D03*
%TO.P,GDT1,2*%
%TO.N,EARTH*%
X138620000Y-117420000D03*
%TD*%
%TO.P,GDT2,1*%
%TO.N,WIRE_B*%
X123380000Y-122500000D03*
%TO.P,GDT2,2*%
%TO.N,EARTH*%
X138620000Y-122500000D03*
%TD*%
D13*
%TO.P,J_LED_A,1*%
%TO.N,LED_A_POS*%
X141460000Y-106500000D03*
D14*
%TO.P,J_LED_A,2*%
%TO.N,WIRE_B*%
X146540000Y-106500000D03*
%TD*%
D15*
%TO.P,J_IN,1*%
%TO.N,WIRE_A*%
X106000000Y-117420000D03*
D11*
%TO.P,J_IN,2*%
%TO.N,WIRE_B*%
X106000000Y-122500000D03*
%TO.P,J_IN,3*%
%TO.N,WIRE_C*%
X106000000Y-127580000D03*
%TD*%
D16*
%TO.P,J_LED_C,1*%
%TO.N,LED_C_POS*%
X146540000Y-138500000D03*
D14*
%TO.P,J_LED_C,2*%
%TO.N,WIRE_B*%
X141460000Y-138500000D03*
%TD*%
D17*
%TO.P,R2 (6.8k 1W),1*%
%TO.N,WIRE_C*%
X108380000Y-138500000D03*
%TO.P,R2 (6.8k 1W),2*%
%TO.N,Net-(D2-A)*%
X123620000Y-138500000D03*
%TD*%
D18*
%TO.P,D1,1*%
%TO.N,LED_A_POS*%
X136080000Y-106500000D03*
D19*
%TO.P,D1,2*%
%TO.N,Net-(D1-A)*%
X125920000Y-106500000D03*
%TD*%
D17*
%TO.P,R1 (6.8k 1W),1*%
%TO.N,WIRE_A*%
X108380000Y-106500000D03*
%TO.P,R1 (6.8k 1W),2*%
%TO.N,Net-(D1-A)*%
X123620000Y-106500000D03*
%TD*%
D12*
%TO.P,GDT3,1*%
%TO.N,WIRE_C*%
X123380000Y-127580000D03*
%TO.P,GDT3,2*%
%TO.N,EARTH*%
X138620000Y-127580000D03*
%TD*%
D18*
%TO.P,D2,1*%
%TO.N,LED_C_POS*%
X136080000Y-138500000D03*
D19*
%TO.P,D2,2*%
%TO.N,Net-(D2-A)*%
X125920000Y-138500000D03*
%TD*%
D20*
%TO.N,WIRE_A*%
X106000000Y-117420000D02*
X123380000Y-117420000D01*
D21*
%TO.N,WIRE_B*%
X146540000Y-111000000D02*
X146540000Y-106500000D01*
X131000000Y-134000000D02*
X146540000Y-134000000D01*
X131000000Y-122500000D02*
X131000000Y-111000000D01*
D20*
X106000000Y-122500000D02*
X123380000Y-122500000D01*
D21*
X131000000Y-122500000D02*
X131000000Y-134000000D01*
X131000000Y-111000000D02*
X146540000Y-111000000D01*
X146540000Y-134000000D02*
X146540000Y-138500000D01*
X123380000Y-122500000D02*
X131000000Y-122500000D01*
D20*
%TO.N,WIRE_C*%
X106000000Y-127580000D02*
X123380000Y-127580000D01*
D22*
%TO.N,EARTH*%
X138620000Y-117420000D02*
X138620000Y-127580000D01*
X138620000Y-122500000D02*
X154000000Y-122500000D01*
X154000000Y-119960000D02*
X154000000Y-125040000D01*
%TD*%
M02*
