%TF.GenerationSoftware,KiCad,Pcbnew,9.0.7*%
%TF.CreationDate,2026-08-22T19:47:47+01:00*%
%TF.ProjectId,pcb,7063622e-6b69-4636-9164-5f7063625858,rev?*%
%TF.SameCoordinates,Original*%
%TF.FileFunction,Legend,Top*%
%TF.FilePolarity,Positive*%
%FSLAX46Y46*%
G04 Gerber Fmt 4.6, Leading zero omitted, Abs format (unit mm)*
G04 Created by KiCad (PCBNEW 9.0.7) date 2026-08-22 19:47:47*
%MOMM*%
%LPD*%
G01*
G04 APERTURE LIST*
%ADD10C,0.150000*%
%ADD11C,0.180000*%
%ADD12C,0.140000*%
%ADD13C,0.200000*%
%ADD14C,0.120000*%
%ADD15C,0.250000*%
G04 APERTURE END LIST*
D10*
X144157142Y-122437128D02*
X144457142Y-122437128D01*
X144585714Y-122908557D02*
X144157142Y-122908557D01*
X144157142Y-122908557D02*
X144157142Y-122008557D01*
X144157142Y-122008557D02*
X144585714Y-122008557D01*
X144928571Y-122651414D02*
X145357143Y-122651414D01*
X144842857Y-122908557D02*
X145142857Y-122008557D01*
X145142857Y-122008557D02*
X145442857Y-122908557D01*
X146257143Y-122908557D02*
X145957143Y-122479985D01*
X145742857Y-122908557D02*
X145742857Y-122008557D01*
X145742857Y-122008557D02*
X146085714Y-122008557D01*
X146085714Y-122008557D02*
X146171429Y-122051414D01*
X146171429Y-122051414D02*
X146214286Y-122094271D01*
X146214286Y-122094271D02*
X146257143Y-122179985D01*
X146257143Y-122179985D02*
X146257143Y-122308557D01*
X146257143Y-122308557D02*
X146214286Y-122394271D01*
X146214286Y-122394271D02*
X146171429Y-122437128D01*
X146171429Y-122437128D02*
X146085714Y-122479985D01*
X146085714Y-122479985D02*
X145742857Y-122479985D01*
X146514286Y-122008557D02*
X147028572Y-122008557D01*
X146771429Y-122908557D02*
X146771429Y-122008557D01*
X147328571Y-122908557D02*
X147328571Y-122008557D01*
X147328571Y-122437128D02*
X147842857Y-122437128D01*
X147842857Y-122908557D02*
X147842857Y-122008557D01*
D11*
X113238095Y-117605235D02*
X113761905Y-117605235D01*
X113133333Y-117919520D02*
X113500000Y-116819520D01*
X113500000Y-116819520D02*
X113866667Y-117919520D01*
D12*
X102057143Y-112035947D02*
X102259524Y-112885947D01*
X102259524Y-112885947D02*
X102421429Y-112278804D01*
X102421429Y-112278804D02*
X102583334Y-112885947D01*
X102583334Y-112885947D02*
X102785715Y-112035947D01*
X103069048Y-112643090D02*
X103473810Y-112643090D01*
X102988096Y-112885947D02*
X103271429Y-112035947D01*
X103271429Y-112035947D02*
X103554763Y-112885947D01*
X104283334Y-112076423D02*
X104202381Y-112035947D01*
X104202381Y-112035947D02*
X104080953Y-112035947D01*
X104080953Y-112035947D02*
X103959524Y-112076423D01*
X103959524Y-112076423D02*
X103878572Y-112157375D01*
X103878572Y-112157375D02*
X103838095Y-112238328D01*
X103838095Y-112238328D02*
X103797619Y-112400232D01*
X103797619Y-112400232D02*
X103797619Y-112521661D01*
X103797619Y-112521661D02*
X103838095Y-112683566D01*
X103838095Y-112683566D02*
X103878572Y-112764518D01*
X103878572Y-112764518D02*
X103959524Y-112845471D01*
X103959524Y-112845471D02*
X104080953Y-112885947D01*
X104080953Y-112885947D02*
X104161905Y-112885947D01*
X104161905Y-112885947D02*
X104283334Y-112845471D01*
X104283334Y-112845471D02*
X104323810Y-112804994D01*
X104323810Y-112804994D02*
X104323810Y-112521661D01*
X104323810Y-112521661D02*
X104161905Y-112521661D01*
X104850000Y-112035947D02*
X105011905Y-112035947D01*
X105011905Y-112035947D02*
X105092857Y-112076423D01*
X105092857Y-112076423D02*
X105173810Y-112157375D01*
X105173810Y-112157375D02*
X105214286Y-112319280D01*
X105214286Y-112319280D02*
X105214286Y-112602613D01*
X105214286Y-112602613D02*
X105173810Y-112764518D01*
X105173810Y-112764518D02*
X105092857Y-112845471D01*
X105092857Y-112845471D02*
X105011905Y-112885947D01*
X105011905Y-112885947D02*
X104850000Y-112885947D01*
X104850000Y-112885947D02*
X104769048Y-112845471D01*
X104769048Y-112845471D02*
X104688095Y-112764518D01*
X104688095Y-112764518D02*
X104647619Y-112602613D01*
X104647619Y-112602613D02*
X104647619Y-112319280D01*
X104647619Y-112319280D02*
X104688095Y-112157375D01*
X104688095Y-112157375D02*
X104769048Y-112076423D01*
X104769048Y-112076423D02*
X104850000Y-112035947D01*
X105538095Y-112845471D02*
X105619048Y-112885947D01*
X105619048Y-112885947D02*
X105780952Y-112885947D01*
X105780952Y-112885947D02*
X105861905Y-112845471D01*
X105861905Y-112845471D02*
X105902381Y-112764518D01*
X105902381Y-112764518D02*
X105902381Y-112724042D01*
X105902381Y-112724042D02*
X105861905Y-112643090D01*
X105861905Y-112643090D02*
X105780952Y-112602613D01*
X105780952Y-112602613D02*
X105659524Y-112602613D01*
X105659524Y-112602613D02*
X105578571Y-112562137D01*
X105578571Y-112562137D02*
X105538095Y-112481185D01*
X105538095Y-112481185D02*
X105538095Y-112440709D01*
X105538095Y-112440709D02*
X105578571Y-112359756D01*
X105578571Y-112359756D02*
X105659524Y-112319280D01*
X105659524Y-112319280D02*
X105780952Y-112319280D01*
X105780952Y-112319280D02*
X105861905Y-112359756D01*
D11*
X113578571Y-122423330D02*
X113735714Y-122475711D01*
X113735714Y-122475711D02*
X113788095Y-122528092D01*
X113788095Y-122528092D02*
X113840476Y-122632854D01*
X113840476Y-122632854D02*
X113840476Y-122789997D01*
X113840476Y-122789997D02*
X113788095Y-122894759D01*
X113788095Y-122894759D02*
X113735714Y-122947140D01*
X113735714Y-122947140D02*
X113630952Y-122999520D01*
X113630952Y-122999520D02*
X113211904Y-122999520D01*
X113211904Y-122999520D02*
X113211904Y-121899520D01*
X113211904Y-121899520D02*
X113578571Y-121899520D01*
X113578571Y-121899520D02*
X113683333Y-121951901D01*
X113683333Y-121951901D02*
X113735714Y-122004282D01*
X113735714Y-122004282D02*
X113788095Y-122109044D01*
X113788095Y-122109044D02*
X113788095Y-122213806D01*
X113788095Y-122213806D02*
X113735714Y-122318568D01*
X113735714Y-122318568D02*
X113683333Y-122370949D01*
X113683333Y-122370949D02*
X113578571Y-122423330D01*
X113578571Y-122423330D02*
X113211904Y-122423330D01*
D12*
X142704761Y-143885947D02*
X142299999Y-143885947D01*
X142299999Y-143885947D02*
X142299999Y-143035947D01*
X142988094Y-143440709D02*
X143271428Y-143440709D01*
X143392856Y-143885947D02*
X142988094Y-143885947D01*
X142988094Y-143885947D02*
X142988094Y-143035947D01*
X142988094Y-143035947D02*
X143392856Y-143035947D01*
X143757142Y-143885947D02*
X143757142Y-143035947D01*
X143757142Y-143035947D02*
X143959523Y-143035947D01*
X143959523Y-143035947D02*
X144080952Y-143076423D01*
X144080952Y-143076423D02*
X144161904Y-143157375D01*
X144161904Y-143157375D02*
X144202381Y-143238328D01*
X144202381Y-143238328D02*
X144242857Y-143400232D01*
X144242857Y-143400232D02*
X144242857Y-143521661D01*
X144242857Y-143521661D02*
X144202381Y-143683566D01*
X144202381Y-143683566D02*
X144161904Y-143764518D01*
X144161904Y-143764518D02*
X144080952Y-143845471D01*
X144080952Y-143845471D02*
X143959523Y-143885947D01*
X143959523Y-143885947D02*
X143757142Y-143885947D01*
X145740476Y-143804994D02*
X145700000Y-143845471D01*
X145700000Y-143845471D02*
X145578571Y-143885947D01*
X145578571Y-143885947D02*
X145497619Y-143885947D01*
X145497619Y-143885947D02*
X145376190Y-143845471D01*
X145376190Y-143845471D02*
X145295238Y-143764518D01*
X145295238Y-143764518D02*
X145254761Y-143683566D01*
X145254761Y-143683566D02*
X145214285Y-143521661D01*
X145214285Y-143521661D02*
X145214285Y-143400232D01*
X145214285Y-143400232D02*
X145254761Y-143238328D01*
X145254761Y-143238328D02*
X145295238Y-143157375D01*
X145295238Y-143157375D02*
X145376190Y-143076423D01*
X145376190Y-143076423D02*
X145497619Y-143035947D01*
X145497619Y-143035947D02*
X145578571Y-143035947D01*
X145578571Y-143035947D02*
X145700000Y-143076423D01*
X145700000Y-143076423D02*
X145740476Y-143116899D01*
D13*
X145966667Y-133103933D02*
X147033334Y-133103933D01*
D12*
X142765476Y-101885947D02*
X142360714Y-101885947D01*
X142360714Y-101885947D02*
X142360714Y-101035947D01*
X143048809Y-101440709D02*
X143332143Y-101440709D01*
X143453571Y-101885947D02*
X143048809Y-101885947D01*
X143048809Y-101885947D02*
X143048809Y-101035947D01*
X143048809Y-101035947D02*
X143453571Y-101035947D01*
X143817857Y-101885947D02*
X143817857Y-101035947D01*
X143817857Y-101035947D02*
X144020238Y-101035947D01*
X144020238Y-101035947D02*
X144141667Y-101076423D01*
X144141667Y-101076423D02*
X144222619Y-101157375D01*
X144222619Y-101157375D02*
X144263096Y-101238328D01*
X144263096Y-101238328D02*
X144303572Y-101400232D01*
X144303572Y-101400232D02*
X144303572Y-101521661D01*
X144303572Y-101521661D02*
X144263096Y-101683566D01*
X144263096Y-101683566D02*
X144222619Y-101764518D01*
X144222619Y-101764518D02*
X144141667Y-101845471D01*
X144141667Y-101845471D02*
X144020238Y-101885947D01*
X144020238Y-101885947D02*
X143817857Y-101885947D01*
X145275000Y-101643090D02*
X145679762Y-101643090D01*
X145194048Y-101885947D02*
X145477381Y-101035947D01*
X145477381Y-101035947D02*
X145760715Y-101885947D01*
D13*
X141002857Y-112087600D02*
X141917143Y-112087600D01*
X141460000Y-112544742D02*
X141460000Y-111630457D01*
D11*
X113840476Y-127974759D02*
X113788095Y-128027140D01*
X113788095Y-128027140D02*
X113630952Y-128079520D01*
X113630952Y-128079520D02*
X113526190Y-128079520D01*
X113526190Y-128079520D02*
X113369047Y-128027140D01*
X113369047Y-128027140D02*
X113264285Y-127922378D01*
X113264285Y-127922378D02*
X113211904Y-127817616D01*
X113211904Y-127817616D02*
X113159523Y-127608092D01*
X113159523Y-127608092D02*
X113159523Y-127450949D01*
X113159523Y-127450949D02*
X113211904Y-127241425D01*
X113211904Y-127241425D02*
X113264285Y-127136663D01*
X113264285Y-127136663D02*
X113369047Y-127031901D01*
X113369047Y-127031901D02*
X113526190Y-126979520D01*
X113526190Y-126979520D02*
X113630952Y-126979520D01*
X113630952Y-126979520D02*
X113788095Y-127031901D01*
X113788095Y-127031901D02*
X113840476Y-127084282D01*
D13*
X140962857Y-133087600D02*
X141877143Y-133087600D01*
X141420000Y-133544742D02*
X141420000Y-132630457D01*
X110228573Y-102744742D02*
X110228573Y-101544742D01*
X110228573Y-101544742D02*
X110514287Y-101544742D01*
X110514287Y-101544742D02*
X110685716Y-101601885D01*
X110685716Y-101601885D02*
X110800001Y-101716171D01*
X110800001Y-101716171D02*
X110857144Y-101830457D01*
X110857144Y-101830457D02*
X110914287Y-102059028D01*
X110914287Y-102059028D02*
X110914287Y-102230457D01*
X110914287Y-102230457D02*
X110857144Y-102459028D01*
X110857144Y-102459028D02*
X110800001Y-102573314D01*
X110800001Y-102573314D02*
X110685716Y-102687600D01*
X110685716Y-102687600D02*
X110514287Y-102744742D01*
X110514287Y-102744742D02*
X110228573Y-102744742D01*
X111600001Y-102744742D02*
X111485716Y-102687600D01*
X111485716Y-102687600D02*
X111428573Y-102630457D01*
X111428573Y-102630457D02*
X111371430Y-102516171D01*
X111371430Y-102516171D02*
X111371430Y-102173314D01*
X111371430Y-102173314D02*
X111428573Y-102059028D01*
X111428573Y-102059028D02*
X111485716Y-102001885D01*
X111485716Y-102001885D02*
X111600001Y-101944742D01*
X111600001Y-101944742D02*
X111771430Y-101944742D01*
X111771430Y-101944742D02*
X111885716Y-102001885D01*
X111885716Y-102001885D02*
X111942859Y-102059028D01*
X111942859Y-102059028D02*
X112000001Y-102173314D01*
X112000001Y-102173314D02*
X112000001Y-102516171D01*
X112000001Y-102516171D02*
X111942859Y-102630457D01*
X111942859Y-102630457D02*
X111885716Y-102687600D01*
X111885716Y-102687600D02*
X111771430Y-102744742D01*
X111771430Y-102744742D02*
X111600001Y-102744742D01*
X113028573Y-101944742D02*
X113028573Y-102916171D01*
X113028573Y-102916171D02*
X112971430Y-103030457D01*
X112971430Y-103030457D02*
X112914287Y-103087600D01*
X112914287Y-103087600D02*
X112800001Y-103144742D01*
X112800001Y-103144742D02*
X112628573Y-103144742D01*
X112628573Y-103144742D02*
X112514287Y-103087600D01*
X113028573Y-102687600D02*
X112914287Y-102744742D01*
X112914287Y-102744742D02*
X112685715Y-102744742D01*
X112685715Y-102744742D02*
X112571430Y-102687600D01*
X112571430Y-102687600D02*
X112514287Y-102630457D01*
X112514287Y-102630457D02*
X112457144Y-102516171D01*
X112457144Y-102516171D02*
X112457144Y-102173314D01*
X112457144Y-102173314D02*
X112514287Y-102059028D01*
X112514287Y-102059028D02*
X112571430Y-102001885D01*
X112571430Y-102001885D02*
X112685715Y-101944742D01*
X112685715Y-101944742D02*
X112914287Y-101944742D01*
X112914287Y-101944742D02*
X113028573Y-102001885D01*
X114914287Y-102116171D02*
X114514287Y-102116171D01*
X114514287Y-102744742D02*
X114514287Y-101544742D01*
X114514287Y-101544742D02*
X115085715Y-101544742D01*
X116000001Y-102687600D02*
X115885715Y-102744742D01*
X115885715Y-102744742D02*
X115657144Y-102744742D01*
X115657144Y-102744742D02*
X115542858Y-102687600D01*
X115542858Y-102687600D02*
X115485715Y-102573314D01*
X115485715Y-102573314D02*
X115485715Y-102116171D01*
X115485715Y-102116171D02*
X115542858Y-102001885D01*
X115542858Y-102001885D02*
X115657144Y-101944742D01*
X115657144Y-101944742D02*
X115885715Y-101944742D01*
X115885715Y-101944742D02*
X116000001Y-102001885D01*
X116000001Y-102001885D02*
X116057144Y-102116171D01*
X116057144Y-102116171D02*
X116057144Y-102230457D01*
X116057144Y-102230457D02*
X115485715Y-102344742D01*
X116571429Y-101944742D02*
X116571429Y-102744742D01*
X116571429Y-102059028D02*
X116628572Y-102001885D01*
X116628572Y-102001885D02*
X116742857Y-101944742D01*
X116742857Y-101944742D02*
X116914286Y-101944742D01*
X116914286Y-101944742D02*
X117028572Y-102001885D01*
X117028572Y-102001885D02*
X117085715Y-102116171D01*
X117085715Y-102116171D02*
X117085715Y-102744742D01*
X118171429Y-102687600D02*
X118057143Y-102744742D01*
X118057143Y-102744742D02*
X117828571Y-102744742D01*
X117828571Y-102744742D02*
X117714286Y-102687600D01*
X117714286Y-102687600D02*
X117657143Y-102630457D01*
X117657143Y-102630457D02*
X117600000Y-102516171D01*
X117600000Y-102516171D02*
X117600000Y-102173314D01*
X117600000Y-102173314D02*
X117657143Y-102059028D01*
X117657143Y-102059028D02*
X117714286Y-102001885D01*
X117714286Y-102001885D02*
X117828571Y-101944742D01*
X117828571Y-101944742D02*
X118057143Y-101944742D01*
X118057143Y-101944742D02*
X118171429Y-102001885D01*
X119142857Y-102687600D02*
X119028571Y-102744742D01*
X119028571Y-102744742D02*
X118800000Y-102744742D01*
X118800000Y-102744742D02*
X118685714Y-102687600D01*
X118685714Y-102687600D02*
X118628571Y-102573314D01*
X118628571Y-102573314D02*
X118628571Y-102116171D01*
X118628571Y-102116171D02*
X118685714Y-102001885D01*
X118685714Y-102001885D02*
X118800000Y-101944742D01*
X118800000Y-101944742D02*
X119028571Y-101944742D01*
X119028571Y-101944742D02*
X119142857Y-102001885D01*
X119142857Y-102001885D02*
X119200000Y-102116171D01*
X119200000Y-102116171D02*
X119200000Y-102230457D01*
X119200000Y-102230457D02*
X118628571Y-102344742D01*
X120628571Y-102744742D02*
X120628571Y-101544742D01*
X121200000Y-101944742D02*
X121200000Y-102744742D01*
X121200000Y-102059028D02*
X121257143Y-102001885D01*
X121257143Y-102001885D02*
X121371428Y-101944742D01*
X121371428Y-101944742D02*
X121542857Y-101944742D01*
X121542857Y-101944742D02*
X121657143Y-102001885D01*
X121657143Y-102001885D02*
X121714286Y-102116171D01*
X121714286Y-102116171D02*
X121714286Y-102744742D01*
X122800000Y-102744742D02*
X122800000Y-101544742D01*
X122800000Y-102687600D02*
X122685714Y-102744742D01*
X122685714Y-102744742D02*
X122457142Y-102744742D01*
X122457142Y-102744742D02*
X122342857Y-102687600D01*
X122342857Y-102687600D02*
X122285714Y-102630457D01*
X122285714Y-102630457D02*
X122228571Y-102516171D01*
X122228571Y-102516171D02*
X122228571Y-102173314D01*
X122228571Y-102173314D02*
X122285714Y-102059028D01*
X122285714Y-102059028D02*
X122342857Y-102001885D01*
X122342857Y-102001885D02*
X122457142Y-101944742D01*
X122457142Y-101944742D02*
X122685714Y-101944742D01*
X122685714Y-101944742D02*
X122800000Y-102001885D01*
X123371428Y-102744742D02*
X123371428Y-101944742D01*
X123371428Y-101544742D02*
X123314285Y-101601885D01*
X123314285Y-101601885D02*
X123371428Y-101659028D01*
X123371428Y-101659028D02*
X123428571Y-101601885D01*
X123428571Y-101601885D02*
X123371428Y-101544742D01*
X123371428Y-101544742D02*
X123371428Y-101659028D01*
X124457143Y-102687600D02*
X124342857Y-102744742D01*
X124342857Y-102744742D02*
X124114285Y-102744742D01*
X124114285Y-102744742D02*
X124000000Y-102687600D01*
X124000000Y-102687600D02*
X123942857Y-102630457D01*
X123942857Y-102630457D02*
X123885714Y-102516171D01*
X123885714Y-102516171D02*
X123885714Y-102173314D01*
X123885714Y-102173314D02*
X123942857Y-102059028D01*
X123942857Y-102059028D02*
X124000000Y-102001885D01*
X124000000Y-102001885D02*
X124114285Y-101944742D01*
X124114285Y-101944742D02*
X124342857Y-101944742D01*
X124342857Y-101944742D02*
X124457143Y-102001885D01*
X125485714Y-102744742D02*
X125485714Y-102116171D01*
X125485714Y-102116171D02*
X125428571Y-102001885D01*
X125428571Y-102001885D02*
X125314285Y-101944742D01*
X125314285Y-101944742D02*
X125085714Y-101944742D01*
X125085714Y-101944742D02*
X124971428Y-102001885D01*
X125485714Y-102687600D02*
X125371428Y-102744742D01*
X125371428Y-102744742D02*
X125085714Y-102744742D01*
X125085714Y-102744742D02*
X124971428Y-102687600D01*
X124971428Y-102687600D02*
X124914285Y-102573314D01*
X124914285Y-102573314D02*
X124914285Y-102459028D01*
X124914285Y-102459028D02*
X124971428Y-102344742D01*
X124971428Y-102344742D02*
X125085714Y-102287600D01*
X125085714Y-102287600D02*
X125371428Y-102287600D01*
X125371428Y-102287600D02*
X125485714Y-102230457D01*
X125885713Y-101944742D02*
X126342856Y-101944742D01*
X126057142Y-101544742D02*
X126057142Y-102573314D01*
X126057142Y-102573314D02*
X126114285Y-102687600D01*
X126114285Y-102687600D02*
X126228570Y-102744742D01*
X126228570Y-102744742D02*
X126342856Y-102744742D01*
X126914284Y-102744742D02*
X126799999Y-102687600D01*
X126799999Y-102687600D02*
X126742856Y-102630457D01*
X126742856Y-102630457D02*
X126685713Y-102516171D01*
X126685713Y-102516171D02*
X126685713Y-102173314D01*
X126685713Y-102173314D02*
X126742856Y-102059028D01*
X126742856Y-102059028D02*
X126799999Y-102001885D01*
X126799999Y-102001885D02*
X126914284Y-101944742D01*
X126914284Y-101944742D02*
X127085713Y-101944742D01*
X127085713Y-101944742D02*
X127199999Y-102001885D01*
X127199999Y-102001885D02*
X127257142Y-102059028D01*
X127257142Y-102059028D02*
X127314284Y-102173314D01*
X127314284Y-102173314D02*
X127314284Y-102516171D01*
X127314284Y-102516171D02*
X127257142Y-102630457D01*
X127257142Y-102630457D02*
X127199999Y-102687600D01*
X127199999Y-102687600D02*
X127085713Y-102744742D01*
X127085713Y-102744742D02*
X126914284Y-102744742D01*
X127828570Y-102744742D02*
X127828570Y-101944742D01*
X127828570Y-102173314D02*
X127885713Y-102059028D01*
X127885713Y-102059028D02*
X127942856Y-102001885D01*
X127942856Y-102001885D02*
X128057141Y-101944742D01*
X128057141Y-101944742D02*
X128171427Y-101944742D01*
X130114284Y-102744742D02*
X129428570Y-102744742D01*
X129771427Y-102744742D02*
X129771427Y-101544742D01*
X129771427Y-101544742D02*
X129657141Y-101716171D01*
X129657141Y-101716171D02*
X129542856Y-101830457D01*
X129542856Y-101830457D02*
X129428570Y-101887600D01*
X130628570Y-102630457D02*
X130685713Y-102687600D01*
X130685713Y-102687600D02*
X130628570Y-102744742D01*
X130628570Y-102744742D02*
X130571427Y-102687600D01*
X130571427Y-102687600D02*
X130628570Y-102630457D01*
X130628570Y-102630457D02*
X130628570Y-102744742D01*
X131428570Y-101544742D02*
X131542856Y-101544742D01*
X131542856Y-101544742D02*
X131657142Y-101601885D01*
X131657142Y-101601885D02*
X131714285Y-101659028D01*
X131714285Y-101659028D02*
X131771427Y-101773314D01*
X131771427Y-101773314D02*
X131828570Y-102001885D01*
X131828570Y-102001885D02*
X131828570Y-102287600D01*
X131828570Y-102287600D02*
X131771427Y-102516171D01*
X131771427Y-102516171D02*
X131714285Y-102630457D01*
X131714285Y-102630457D02*
X131657142Y-102687600D01*
X131657142Y-102687600D02*
X131542856Y-102744742D01*
X131542856Y-102744742D02*
X131428570Y-102744742D01*
X131428570Y-102744742D02*
X131314285Y-102687600D01*
X131314285Y-102687600D02*
X131257142Y-102630457D01*
X131257142Y-102630457D02*
X131199999Y-102516171D01*
X131199999Y-102516171D02*
X131142856Y-102287600D01*
X131142856Y-102287600D02*
X131142856Y-102001885D01*
X131142856Y-102001885D02*
X131199999Y-101773314D01*
X131199999Y-101773314D02*
X131257142Y-101659028D01*
X131257142Y-101659028D02*
X131314285Y-101601885D01*
X131314285Y-101601885D02*
X131428570Y-101544742D01*
X146006667Y-112103933D02*
X147073334Y-112103933D01*
D14*
X126678571Y-116126438D02*
X126607143Y-116090724D01*
X126607143Y-116090724D02*
X126500000Y-116090724D01*
X126500000Y-116090724D02*
X126392857Y-116126438D01*
X126392857Y-116126438D02*
X126321428Y-116197867D01*
X126321428Y-116197867D02*
X126285714Y-116269295D01*
X126285714Y-116269295D02*
X126250000Y-116412152D01*
X126250000Y-116412152D02*
X126250000Y-116519295D01*
X126250000Y-116519295D02*
X126285714Y-116662152D01*
X126285714Y-116662152D02*
X126321428Y-116733581D01*
X126321428Y-116733581D02*
X126392857Y-116805010D01*
X126392857Y-116805010D02*
X126500000Y-116840724D01*
X126500000Y-116840724D02*
X126571428Y-116840724D01*
X126571428Y-116840724D02*
X126678571Y-116805010D01*
X126678571Y-116805010D02*
X126714285Y-116769295D01*
X126714285Y-116769295D02*
X126714285Y-116519295D01*
X126714285Y-116519295D02*
X126571428Y-116519295D01*
X127035714Y-116840724D02*
X127035714Y-116090724D01*
X127035714Y-116090724D02*
X127214285Y-116090724D01*
X127214285Y-116090724D02*
X127321428Y-116126438D01*
X127321428Y-116126438D02*
X127392857Y-116197867D01*
X127392857Y-116197867D02*
X127428571Y-116269295D01*
X127428571Y-116269295D02*
X127464285Y-116412152D01*
X127464285Y-116412152D02*
X127464285Y-116519295D01*
X127464285Y-116519295D02*
X127428571Y-116662152D01*
X127428571Y-116662152D02*
X127392857Y-116733581D01*
X127392857Y-116733581D02*
X127321428Y-116805010D01*
X127321428Y-116805010D02*
X127214285Y-116840724D01*
X127214285Y-116840724D02*
X127035714Y-116840724D01*
X127678571Y-116090724D02*
X128107143Y-116090724D01*
X127892857Y-116840724D02*
X127892857Y-116090724D01*
X128750000Y-116840724D02*
X128321429Y-116840724D01*
X128535714Y-116840724D02*
X128535714Y-116090724D01*
X128535714Y-116090724D02*
X128464286Y-116197867D01*
X128464286Y-116197867D02*
X128392857Y-116269295D01*
X128392857Y-116269295D02*
X128321429Y-116305010D01*
X126678571Y-121126438D02*
X126607143Y-121090724D01*
X126607143Y-121090724D02*
X126500000Y-121090724D01*
X126500000Y-121090724D02*
X126392857Y-121126438D01*
X126392857Y-121126438D02*
X126321428Y-121197867D01*
X126321428Y-121197867D02*
X126285714Y-121269295D01*
X126285714Y-121269295D02*
X126250000Y-121412152D01*
X126250000Y-121412152D02*
X126250000Y-121519295D01*
X126250000Y-121519295D02*
X126285714Y-121662152D01*
X126285714Y-121662152D02*
X126321428Y-121733581D01*
X126321428Y-121733581D02*
X126392857Y-121805010D01*
X126392857Y-121805010D02*
X126500000Y-121840724D01*
X126500000Y-121840724D02*
X126571428Y-121840724D01*
X126571428Y-121840724D02*
X126678571Y-121805010D01*
X126678571Y-121805010D02*
X126714285Y-121769295D01*
X126714285Y-121769295D02*
X126714285Y-121519295D01*
X126714285Y-121519295D02*
X126571428Y-121519295D01*
X127035714Y-121840724D02*
X127035714Y-121090724D01*
X127035714Y-121090724D02*
X127214285Y-121090724D01*
X127214285Y-121090724D02*
X127321428Y-121126438D01*
X127321428Y-121126438D02*
X127392857Y-121197867D01*
X127392857Y-121197867D02*
X127428571Y-121269295D01*
X127428571Y-121269295D02*
X127464285Y-121412152D01*
X127464285Y-121412152D02*
X127464285Y-121519295D01*
X127464285Y-121519295D02*
X127428571Y-121662152D01*
X127428571Y-121662152D02*
X127392857Y-121733581D01*
X127392857Y-121733581D02*
X127321428Y-121805010D01*
X127321428Y-121805010D02*
X127214285Y-121840724D01*
X127214285Y-121840724D02*
X127035714Y-121840724D01*
X127678571Y-121090724D02*
X128107143Y-121090724D01*
X127892857Y-121840724D02*
X127892857Y-121090724D01*
X128321429Y-121162152D02*
X128357143Y-121126438D01*
X128357143Y-121126438D02*
X128428572Y-121090724D01*
X128428572Y-121090724D02*
X128607143Y-121090724D01*
X128607143Y-121090724D02*
X128678572Y-121126438D01*
X128678572Y-121126438D02*
X128714286Y-121162152D01*
X128714286Y-121162152D02*
X128750000Y-121233581D01*
X128750000Y-121233581D02*
X128750000Y-121305010D01*
X128750000Y-121305010D02*
X128714286Y-121412152D01*
X128714286Y-121412152D02*
X128285714Y-121840724D01*
X128285714Y-121840724D02*
X128750000Y-121840724D01*
X112609524Y-135563855D02*
X112342857Y-135182902D01*
X112152381Y-135563855D02*
X112152381Y-134763855D01*
X112152381Y-134763855D02*
X112457143Y-134763855D01*
X112457143Y-134763855D02*
X112533333Y-134801950D01*
X112533333Y-134801950D02*
X112571428Y-134840045D01*
X112571428Y-134840045D02*
X112609524Y-134916236D01*
X112609524Y-134916236D02*
X112609524Y-135030521D01*
X112609524Y-135030521D02*
X112571428Y-135106712D01*
X112571428Y-135106712D02*
X112533333Y-135144807D01*
X112533333Y-135144807D02*
X112457143Y-135182902D01*
X112457143Y-135182902D02*
X112152381Y-135182902D01*
X112914285Y-134840045D02*
X112952381Y-134801950D01*
X112952381Y-134801950D02*
X113028571Y-134763855D01*
X113028571Y-134763855D02*
X113219047Y-134763855D01*
X113219047Y-134763855D02*
X113295238Y-134801950D01*
X113295238Y-134801950D02*
X113333333Y-134840045D01*
X113333333Y-134840045D02*
X113371428Y-134916236D01*
X113371428Y-134916236D02*
X113371428Y-134992426D01*
X113371428Y-134992426D02*
X113333333Y-135106712D01*
X113333333Y-135106712D02*
X112876190Y-135563855D01*
X112876190Y-135563855D02*
X113371428Y-135563855D01*
X114552381Y-135868617D02*
X114514286Y-135830521D01*
X114514286Y-135830521D02*
X114438095Y-135716236D01*
X114438095Y-135716236D02*
X114400000Y-135640045D01*
X114400000Y-135640045D02*
X114361905Y-135525760D01*
X114361905Y-135525760D02*
X114323810Y-135335283D01*
X114323810Y-135335283D02*
X114323810Y-135182902D01*
X114323810Y-135182902D02*
X114361905Y-134992426D01*
X114361905Y-134992426D02*
X114400000Y-134878140D01*
X114400000Y-134878140D02*
X114438095Y-134801950D01*
X114438095Y-134801950D02*
X114514286Y-134687664D01*
X114514286Y-134687664D02*
X114552381Y-134649569D01*
X115200000Y-134763855D02*
X115047619Y-134763855D01*
X115047619Y-134763855D02*
X114971428Y-134801950D01*
X114971428Y-134801950D02*
X114933333Y-134840045D01*
X114933333Y-134840045D02*
X114857143Y-134954331D01*
X114857143Y-134954331D02*
X114819047Y-135106712D01*
X114819047Y-135106712D02*
X114819047Y-135411474D01*
X114819047Y-135411474D02*
X114857143Y-135487664D01*
X114857143Y-135487664D02*
X114895238Y-135525760D01*
X114895238Y-135525760D02*
X114971428Y-135563855D01*
X114971428Y-135563855D02*
X115123809Y-135563855D01*
X115123809Y-135563855D02*
X115200000Y-135525760D01*
X115200000Y-135525760D02*
X115238095Y-135487664D01*
X115238095Y-135487664D02*
X115276190Y-135411474D01*
X115276190Y-135411474D02*
X115276190Y-135220998D01*
X115276190Y-135220998D02*
X115238095Y-135144807D01*
X115238095Y-135144807D02*
X115200000Y-135106712D01*
X115200000Y-135106712D02*
X115123809Y-135068617D01*
X115123809Y-135068617D02*
X114971428Y-135068617D01*
X114971428Y-135068617D02*
X114895238Y-135106712D01*
X114895238Y-135106712D02*
X114857143Y-135144807D01*
X114857143Y-135144807D02*
X114819047Y-135220998D01*
X115619048Y-135487664D02*
X115657143Y-135525760D01*
X115657143Y-135525760D02*
X115619048Y-135563855D01*
X115619048Y-135563855D02*
X115580952Y-135525760D01*
X115580952Y-135525760D02*
X115619048Y-135487664D01*
X115619048Y-135487664D02*
X115619048Y-135563855D01*
X116114285Y-135106712D02*
X116038095Y-135068617D01*
X116038095Y-135068617D02*
X116000000Y-135030521D01*
X116000000Y-135030521D02*
X115961904Y-134954331D01*
X115961904Y-134954331D02*
X115961904Y-134916236D01*
X115961904Y-134916236D02*
X116000000Y-134840045D01*
X116000000Y-134840045D02*
X116038095Y-134801950D01*
X116038095Y-134801950D02*
X116114285Y-134763855D01*
X116114285Y-134763855D02*
X116266666Y-134763855D01*
X116266666Y-134763855D02*
X116342857Y-134801950D01*
X116342857Y-134801950D02*
X116380952Y-134840045D01*
X116380952Y-134840045D02*
X116419047Y-134916236D01*
X116419047Y-134916236D02*
X116419047Y-134954331D01*
X116419047Y-134954331D02*
X116380952Y-135030521D01*
X116380952Y-135030521D02*
X116342857Y-135068617D01*
X116342857Y-135068617D02*
X116266666Y-135106712D01*
X116266666Y-135106712D02*
X116114285Y-135106712D01*
X116114285Y-135106712D02*
X116038095Y-135144807D01*
X116038095Y-135144807D02*
X116000000Y-135182902D01*
X116000000Y-135182902D02*
X115961904Y-135259093D01*
X115961904Y-135259093D02*
X115961904Y-135411474D01*
X115961904Y-135411474D02*
X116000000Y-135487664D01*
X116000000Y-135487664D02*
X116038095Y-135525760D01*
X116038095Y-135525760D02*
X116114285Y-135563855D01*
X116114285Y-135563855D02*
X116266666Y-135563855D01*
X116266666Y-135563855D02*
X116342857Y-135525760D01*
X116342857Y-135525760D02*
X116380952Y-135487664D01*
X116380952Y-135487664D02*
X116419047Y-135411474D01*
X116419047Y-135411474D02*
X116419047Y-135259093D01*
X116419047Y-135259093D02*
X116380952Y-135182902D01*
X116380952Y-135182902D02*
X116342857Y-135144807D01*
X116342857Y-135144807D02*
X116266666Y-135106712D01*
X116761905Y-135563855D02*
X116761905Y-134763855D01*
X116838095Y-135259093D02*
X117066667Y-135563855D01*
X117066667Y-135030521D02*
X116761905Y-135335283D01*
X118438095Y-135563855D02*
X117980952Y-135563855D01*
X118209524Y-135563855D02*
X118209524Y-134763855D01*
X118209524Y-134763855D02*
X118133333Y-134878140D01*
X118133333Y-134878140D02*
X118057143Y-134954331D01*
X118057143Y-134954331D02*
X117980952Y-134992426D01*
X118704762Y-134763855D02*
X118895238Y-135563855D01*
X118895238Y-135563855D02*
X119047619Y-134992426D01*
X119047619Y-134992426D02*
X119200000Y-135563855D01*
X119200000Y-135563855D02*
X119390477Y-134763855D01*
X119619048Y-135868617D02*
X119657143Y-135830521D01*
X119657143Y-135830521D02*
X119733334Y-135716236D01*
X119733334Y-135716236D02*
X119771429Y-135640045D01*
X119771429Y-135640045D02*
X119809524Y-135525760D01*
X119809524Y-135525760D02*
X119847620Y-135335283D01*
X119847620Y-135335283D02*
X119847620Y-135182902D01*
X119847620Y-135182902D02*
X119809524Y-134992426D01*
X119809524Y-134992426D02*
X119771429Y-134878140D01*
X119771429Y-134878140D02*
X119733334Y-134801950D01*
X119733334Y-134801950D02*
X119657143Y-134687664D01*
X119657143Y-134687664D02*
X119619048Y-134649569D01*
X130409524Y-109363855D02*
X130409524Y-108563855D01*
X130409524Y-108563855D02*
X130600000Y-108563855D01*
X130600000Y-108563855D02*
X130714286Y-108601950D01*
X130714286Y-108601950D02*
X130790476Y-108678140D01*
X130790476Y-108678140D02*
X130828571Y-108754331D01*
X130828571Y-108754331D02*
X130866667Y-108906712D01*
X130866667Y-108906712D02*
X130866667Y-109020998D01*
X130866667Y-109020998D02*
X130828571Y-109173379D01*
X130828571Y-109173379D02*
X130790476Y-109249569D01*
X130790476Y-109249569D02*
X130714286Y-109325760D01*
X130714286Y-109325760D02*
X130600000Y-109363855D01*
X130600000Y-109363855D02*
X130409524Y-109363855D01*
X131628571Y-109363855D02*
X131171428Y-109363855D01*
X131400000Y-109363855D02*
X131400000Y-108563855D01*
X131400000Y-108563855D02*
X131323809Y-108678140D01*
X131323809Y-108678140D02*
X131247619Y-108754331D01*
X131247619Y-108754331D02*
X131171428Y-108792426D01*
X112609524Y-110163855D02*
X112342857Y-109782902D01*
X112152381Y-110163855D02*
X112152381Y-109363855D01*
X112152381Y-109363855D02*
X112457143Y-109363855D01*
X112457143Y-109363855D02*
X112533333Y-109401950D01*
X112533333Y-109401950D02*
X112571428Y-109440045D01*
X112571428Y-109440045D02*
X112609524Y-109516236D01*
X112609524Y-109516236D02*
X112609524Y-109630521D01*
X112609524Y-109630521D02*
X112571428Y-109706712D01*
X112571428Y-109706712D02*
X112533333Y-109744807D01*
X112533333Y-109744807D02*
X112457143Y-109782902D01*
X112457143Y-109782902D02*
X112152381Y-109782902D01*
X113371428Y-110163855D02*
X112914285Y-110163855D01*
X113142857Y-110163855D02*
X113142857Y-109363855D01*
X113142857Y-109363855D02*
X113066666Y-109478140D01*
X113066666Y-109478140D02*
X112990476Y-109554331D01*
X112990476Y-109554331D02*
X112914285Y-109592426D01*
X114552381Y-110468617D02*
X114514286Y-110430521D01*
X114514286Y-110430521D02*
X114438095Y-110316236D01*
X114438095Y-110316236D02*
X114400000Y-110240045D01*
X114400000Y-110240045D02*
X114361905Y-110125760D01*
X114361905Y-110125760D02*
X114323810Y-109935283D01*
X114323810Y-109935283D02*
X114323810Y-109782902D01*
X114323810Y-109782902D02*
X114361905Y-109592426D01*
X114361905Y-109592426D02*
X114400000Y-109478140D01*
X114400000Y-109478140D02*
X114438095Y-109401950D01*
X114438095Y-109401950D02*
X114514286Y-109287664D01*
X114514286Y-109287664D02*
X114552381Y-109249569D01*
X115200000Y-109363855D02*
X115047619Y-109363855D01*
X115047619Y-109363855D02*
X114971428Y-109401950D01*
X114971428Y-109401950D02*
X114933333Y-109440045D01*
X114933333Y-109440045D02*
X114857143Y-109554331D01*
X114857143Y-109554331D02*
X114819047Y-109706712D01*
X114819047Y-109706712D02*
X114819047Y-110011474D01*
X114819047Y-110011474D02*
X114857143Y-110087664D01*
X114857143Y-110087664D02*
X114895238Y-110125760D01*
X114895238Y-110125760D02*
X114971428Y-110163855D01*
X114971428Y-110163855D02*
X115123809Y-110163855D01*
X115123809Y-110163855D02*
X115200000Y-110125760D01*
X115200000Y-110125760D02*
X115238095Y-110087664D01*
X115238095Y-110087664D02*
X115276190Y-110011474D01*
X115276190Y-110011474D02*
X115276190Y-109820998D01*
X115276190Y-109820998D02*
X115238095Y-109744807D01*
X115238095Y-109744807D02*
X115200000Y-109706712D01*
X115200000Y-109706712D02*
X115123809Y-109668617D01*
X115123809Y-109668617D02*
X114971428Y-109668617D01*
X114971428Y-109668617D02*
X114895238Y-109706712D01*
X114895238Y-109706712D02*
X114857143Y-109744807D01*
X114857143Y-109744807D02*
X114819047Y-109820998D01*
X115619048Y-110087664D02*
X115657143Y-110125760D01*
X115657143Y-110125760D02*
X115619048Y-110163855D01*
X115619048Y-110163855D02*
X115580952Y-110125760D01*
X115580952Y-110125760D02*
X115619048Y-110087664D01*
X115619048Y-110087664D02*
X115619048Y-110163855D01*
X116114285Y-109706712D02*
X116038095Y-109668617D01*
X116038095Y-109668617D02*
X116000000Y-109630521D01*
X116000000Y-109630521D02*
X115961904Y-109554331D01*
X115961904Y-109554331D02*
X115961904Y-109516236D01*
X115961904Y-109516236D02*
X116000000Y-109440045D01*
X116000000Y-109440045D02*
X116038095Y-109401950D01*
X116038095Y-109401950D02*
X116114285Y-109363855D01*
X116114285Y-109363855D02*
X116266666Y-109363855D01*
X116266666Y-109363855D02*
X116342857Y-109401950D01*
X116342857Y-109401950D02*
X116380952Y-109440045D01*
X116380952Y-109440045D02*
X116419047Y-109516236D01*
X116419047Y-109516236D02*
X116419047Y-109554331D01*
X116419047Y-109554331D02*
X116380952Y-109630521D01*
X116380952Y-109630521D02*
X116342857Y-109668617D01*
X116342857Y-109668617D02*
X116266666Y-109706712D01*
X116266666Y-109706712D02*
X116114285Y-109706712D01*
X116114285Y-109706712D02*
X116038095Y-109744807D01*
X116038095Y-109744807D02*
X116000000Y-109782902D01*
X116000000Y-109782902D02*
X115961904Y-109859093D01*
X115961904Y-109859093D02*
X115961904Y-110011474D01*
X115961904Y-110011474D02*
X116000000Y-110087664D01*
X116000000Y-110087664D02*
X116038095Y-110125760D01*
X116038095Y-110125760D02*
X116114285Y-110163855D01*
X116114285Y-110163855D02*
X116266666Y-110163855D01*
X116266666Y-110163855D02*
X116342857Y-110125760D01*
X116342857Y-110125760D02*
X116380952Y-110087664D01*
X116380952Y-110087664D02*
X116419047Y-110011474D01*
X116419047Y-110011474D02*
X116419047Y-109859093D01*
X116419047Y-109859093D02*
X116380952Y-109782902D01*
X116380952Y-109782902D02*
X116342857Y-109744807D01*
X116342857Y-109744807D02*
X116266666Y-109706712D01*
X116761905Y-110163855D02*
X116761905Y-109363855D01*
X116838095Y-109859093D02*
X117066667Y-110163855D01*
X117066667Y-109630521D02*
X116761905Y-109935283D01*
X118438095Y-110163855D02*
X117980952Y-110163855D01*
X118209524Y-110163855D02*
X118209524Y-109363855D01*
X118209524Y-109363855D02*
X118133333Y-109478140D01*
X118133333Y-109478140D02*
X118057143Y-109554331D01*
X118057143Y-109554331D02*
X117980952Y-109592426D01*
X118704762Y-109363855D02*
X118895238Y-110163855D01*
X118895238Y-110163855D02*
X119047619Y-109592426D01*
X119047619Y-109592426D02*
X119200000Y-110163855D01*
X119200000Y-110163855D02*
X119390477Y-109363855D01*
X119619048Y-110468617D02*
X119657143Y-110430521D01*
X119657143Y-110430521D02*
X119733334Y-110316236D01*
X119733334Y-110316236D02*
X119771429Y-110240045D01*
X119771429Y-110240045D02*
X119809524Y-110125760D01*
X119809524Y-110125760D02*
X119847620Y-109935283D01*
X119847620Y-109935283D02*
X119847620Y-109782902D01*
X119847620Y-109782902D02*
X119809524Y-109592426D01*
X119809524Y-109592426D02*
X119771429Y-109478140D01*
X119771429Y-109478140D02*
X119733334Y-109401950D01*
X119733334Y-109401950D02*
X119657143Y-109287664D01*
X119657143Y-109287664D02*
X119619048Y-109249569D01*
X126678571Y-126126438D02*
X126607143Y-126090724D01*
X126607143Y-126090724D02*
X126500000Y-126090724D01*
X126500000Y-126090724D02*
X126392857Y-126126438D01*
X126392857Y-126126438D02*
X126321428Y-126197867D01*
X126321428Y-126197867D02*
X126285714Y-126269295D01*
X126285714Y-126269295D02*
X126250000Y-126412152D01*
X126250000Y-126412152D02*
X126250000Y-126519295D01*
X126250000Y-126519295D02*
X126285714Y-126662152D01*
X126285714Y-126662152D02*
X126321428Y-126733581D01*
X126321428Y-126733581D02*
X126392857Y-126805010D01*
X126392857Y-126805010D02*
X126500000Y-126840724D01*
X126500000Y-126840724D02*
X126571428Y-126840724D01*
X126571428Y-126840724D02*
X126678571Y-126805010D01*
X126678571Y-126805010D02*
X126714285Y-126769295D01*
X126714285Y-126769295D02*
X126714285Y-126519295D01*
X126714285Y-126519295D02*
X126571428Y-126519295D01*
X127035714Y-126840724D02*
X127035714Y-126090724D01*
X127035714Y-126090724D02*
X127214285Y-126090724D01*
X127214285Y-126090724D02*
X127321428Y-126126438D01*
X127321428Y-126126438D02*
X127392857Y-126197867D01*
X127392857Y-126197867D02*
X127428571Y-126269295D01*
X127428571Y-126269295D02*
X127464285Y-126412152D01*
X127464285Y-126412152D02*
X127464285Y-126519295D01*
X127464285Y-126519295D02*
X127428571Y-126662152D01*
X127428571Y-126662152D02*
X127392857Y-126733581D01*
X127392857Y-126733581D02*
X127321428Y-126805010D01*
X127321428Y-126805010D02*
X127214285Y-126840724D01*
X127214285Y-126840724D02*
X127035714Y-126840724D01*
X127678571Y-126090724D02*
X128107143Y-126090724D01*
X127892857Y-126840724D02*
X127892857Y-126090724D01*
X128285714Y-126090724D02*
X128750000Y-126090724D01*
X128750000Y-126090724D02*
X128500000Y-126376438D01*
X128500000Y-126376438D02*
X128607143Y-126376438D01*
X128607143Y-126376438D02*
X128678572Y-126412152D01*
X128678572Y-126412152D02*
X128714286Y-126447867D01*
X128714286Y-126447867D02*
X128750000Y-126519295D01*
X128750000Y-126519295D02*
X128750000Y-126697867D01*
X128750000Y-126697867D02*
X128714286Y-126769295D01*
X128714286Y-126769295D02*
X128678572Y-126805010D01*
X128678572Y-126805010D02*
X128607143Y-126840724D01*
X128607143Y-126840724D02*
X128392857Y-126840724D01*
X128392857Y-126840724D02*
X128321429Y-126805010D01*
X128321429Y-126805010D02*
X128285714Y-126769295D01*
X130409524Y-136363855D02*
X130409524Y-135563855D01*
X130409524Y-135563855D02*
X130600000Y-135563855D01*
X130600000Y-135563855D02*
X130714286Y-135601950D01*
X130714286Y-135601950D02*
X130790476Y-135678140D01*
X130790476Y-135678140D02*
X130828571Y-135754331D01*
X130828571Y-135754331D02*
X130866667Y-135906712D01*
X130866667Y-135906712D02*
X130866667Y-136020998D01*
X130866667Y-136020998D02*
X130828571Y-136173379D01*
X130828571Y-136173379D02*
X130790476Y-136249569D01*
X130790476Y-136249569D02*
X130714286Y-136325760D01*
X130714286Y-136325760D02*
X130600000Y-136363855D01*
X130600000Y-136363855D02*
X130409524Y-136363855D01*
X131171428Y-135640045D02*
X131209524Y-135601950D01*
X131209524Y-135601950D02*
X131285714Y-135563855D01*
X131285714Y-135563855D02*
X131476190Y-135563855D01*
X131476190Y-135563855D02*
X131552381Y-135601950D01*
X131552381Y-135601950D02*
X131590476Y-135640045D01*
X131590476Y-135640045D02*
X131628571Y-135716236D01*
X131628571Y-135716236D02*
X131628571Y-135792426D01*
X131628571Y-135792426D02*
X131590476Y-135906712D01*
X131590476Y-135906712D02*
X131133333Y-136363855D01*
X131133333Y-136363855D02*
X131628571Y-136363855D01*
%TO.C,J_EARTH*%
D10*
X158200000Y-128000000D02*
X149800000Y-128000000D01*
X149800000Y-117000000D01*
X158200000Y-117000000D01*
X158200000Y-128000000D01*
%TO.C,GDT1*%
X124000000Y-115220000D02*
X138000000Y-115220000D01*
X124000000Y-119620000D02*
X124000000Y-115220000D01*
X138000000Y-115220000D02*
X138000000Y-119620000D01*
X138000000Y-119620000D02*
X124000000Y-119620000D01*
%TO.C,GDT2*%
X124000000Y-120300000D02*
X138000000Y-120300000D01*
X124000000Y-124700000D02*
X124000000Y-120300000D01*
X138000000Y-120300000D02*
X138000000Y-124700000D01*
X138000000Y-124700000D02*
X124000000Y-124700000D01*
%TO.C,J_LED_A*%
X138500000Y-110700000D02*
X149500000Y-110700000D01*
X149500000Y-102300000D01*
X138500000Y-102300000D01*
X138500000Y-110700000D01*
%TO.C,J_IN*%
X101800000Y-114000000D02*
X110200000Y-114000000D01*
X110200000Y-131000000D01*
X101800000Y-131000000D01*
X101800000Y-114000000D01*
%TO.C,J_LED_C*%
X149500000Y-134300000D02*
X138500000Y-134300000D01*
X138500000Y-142700000D01*
X149500000Y-142700000D01*
X149500000Y-134300000D01*
%TO.C,R2 (6.8k 1W)*%
X110000000Y-136250000D02*
X122000000Y-136250000D01*
X110000000Y-140750000D02*
X110000000Y-136250000D01*
X122000000Y-136250000D02*
X122000000Y-140750000D01*
X122000000Y-140750000D02*
X110000000Y-140750000D01*
%TO.C,D1*%
X128400000Y-105150000D02*
X133600000Y-105150000D01*
X128400000Y-107850000D02*
X128400000Y-105150000D01*
D15*
X132500000Y-105150000D02*
X132500000Y-107850000D01*
D10*
X133600000Y-105150000D02*
X133600000Y-107850000D01*
X133600000Y-107850000D02*
X128400000Y-107850000D01*
%TO.C,R1 (6.8k 1W)*%
X110000000Y-104250000D02*
X122000000Y-104250000D01*
X110000000Y-108750000D02*
X110000000Y-104250000D01*
X122000000Y-104250000D02*
X122000000Y-108750000D01*
X122000000Y-108750000D02*
X110000000Y-108750000D01*
%TO.C,GDT3*%
X124000000Y-125380000D02*
X138000000Y-125380000D01*
X124000000Y-129780000D02*
X124000000Y-125380000D01*
X138000000Y-125380000D02*
X138000000Y-129780000D01*
X138000000Y-129780000D02*
X124000000Y-129780000D01*
%TO.C,D2*%
X128400000Y-137150000D02*
X133600000Y-137150000D01*
X128400000Y-139850000D02*
X128400000Y-137150000D01*
D15*
X132500000Y-137150000D02*
X132500000Y-139850000D01*
D10*
X133600000Y-137150000D02*
X133600000Y-139850000D01*
X133600000Y-139850000D02*
X128400000Y-139850000D01*
%TD*%
M02*
